<svg xmlns="http://www.w3.org/2000/svg" style="display:none" shape-rendering="crispEdges">
<symbol id="hanzhongli-body" viewBox="0 0 56 24"><path fill="#1A1A1A" d="M25 2h2v1h-2zM30 2h2v1h-2zM24 3h3v1h-3zM30 3h3v1h-3zM24 4h1v1h-1zM27 4h1v1h-1zM29 4h1v1h-1zM32 4h1v1h-1zM24 5h1v1h-1zM32 5h1v1h-1zM24 6h1v1h-1zM32 6h1v1h-1zM24 7h1v1h-1zM32 7h1v1h-1zM24 8h1v1h-1zM32 8h1v1h-1zM24 9h1v1h-1zM32 9h1v1h-1zM24 10h1v1h-1zM32 10h1v1h-1zM24 11h1v1h-1zM32 11h1v1h-1zM24 12h1v1h-1zM32 12h1v1h-1zM25 13h1v1h-1zM31 13h1v1h-1zM20 14h1v1h-1zM26 14h1v1h-1zM30 14h1v1h-1zM35 14h1v1h-1zM20 15h1v1h-1zM35 15h1v1h-1zM20 16h1v1h-1zM35 16h1v1h-1zM20 17h1v1h-1zM35 17h1v1h-1zM20 18h1v1h-1zM35 18h1v1h-1zM19 19h1v1h-1zM36 19h1v1h-1zM19 20h1v1h-1zM36 20h1v1h-1zM19 21h1v1h-1zM36 21h1v1h-1zM19 22h1v1h-1zM36 22h1v1h-1z"/><path fill="#3A3330" d="M25 4h2v1h-2zM30 4h2v1h-2zM25 5h7v1h-7zM25 6h7v1h-7zM25 12h1v1h-1zM31 12h1v1h-1zM26 13h5v1h-5zM27 14h3v1h-3z"/><path fill="#C9A47C" d="M25 7h7v1h-7zM28 11h1v1h-1zM27 12h2v1h-2z"/><path fill="#E8C9A0" d="M25 8h7v1h-7zM25 9h1v1h-1zM28 9h1v1h-1zM31 9h1v1h-1zM25 10h1v1h-1zM28 10h1v1h-1zM31 10h1v1h-1zM25 11h3v1h-3zM29 11h3v1h-3zM26 12h1v1h-1zM29 12h2v1h-2z"/><path fill="#2A2A2A" d="M26 9h2v1h-2zM29 9h2v1h-2zM26 10h2v1h-2zM29 10h2v1h-2z"/><path fill="#E3714E" d="M21 14h2v1h-2zM33 14h2v1h-2zM21 15h2v1h-2zM33 15h2v1h-2zM21 16h2v1h-2zM33 16h2v1h-2zM21 17h2v1h-2zM33 17h2v1h-2zM20 19h2v1h-2zM34 19h2v1h-2zM20 20h2v1h-2zM34 20h2v1h-2z"/><path fill="#723927" d="M23 14h1v1h-1zM32 14h1v1h-1zM23 15h1v1h-1zM32 15h1v1h-1zM23 16h1v1h-1zM32 16h1v1h-1zM23 17h1v1h-1zM32 17h1v1h-1zM21 18h12v1h-12zM34 18h1v1h-1zM22 19h1v1h-1zM33 19h1v1h-1zM22 20h1v1h-1zM33 20h1v1h-1zM20 21h16v1h-16zM20 22h16v1h-16z"/><path fill="#A8543A" d="M24 14h2v1h-2zM31 14h1v1h-1zM24 15h8v1h-8zM24 16h8v1h-8zM24 17h8v1h-8zM23 19h10v1h-10zM23 20h10v1h-10z"/><path fill="#8A939C" d="M33 18h1v1h-1z"/></symbol>
<symbol id="hanzhongli-p-rest" viewBox="0 0 56 24"><path fill="#1A1A1A" d="M35 5h2v1h-2zM34 6h1v1h-1zM37 6h1v1h-1zM33 7h1v1h-1zM37 7h1v1h-1zM32 8h1v1h-1zM37 8h1v1h-1zM32 9h1v1h-1zM37 9h1v1h-1zM32 10h1v1h-1zM37 10h1v1h-1zM32 11h1v1h-1zM37 11h1v1h-1zM33 12h1v1h-1zM37 12h1v1h-1zM33 13h1v1h-1zM36 13h1v1h-1zM34 14h1v1h-1zM36 14h1v1h-1zM35 15h2v1h-2zM35 16h2v1h-2z"/><path fill="#4E8A3F" d="M35 6h2v1h-2zM34 7h1v1h-1zM36 7h1v1h-1zM33 8h2v1h-2zM36 8h1v1h-1zM34 9h1v1h-1zM36 9h1v1h-1zM33 10h2v1h-2zM36 10h1v1h-1zM33 11h2v1h-2zM36 11h1v1h-1zM34 12h1v1h-1zM36 12h1v1h-1zM34 13h1v1h-1z"/><path fill="#2F5A26" d="M35 7h1v1h-1zM35 8h1v1h-1zM35 9h1v1h-1zM35 10h1v1h-1zM35 11h1v1h-1zM35 12h1v1h-1zM35 13h1v1h-1zM35 14h1v1h-1z"/><path fill="#FFFFFF" d="M33 9h1v1h-1z"/></symbol>
<symbol id="hanzhongli-x-rest" viewBox="0 0 56 24"></symbol>
<symbol id="hanzhongli-p-work" viewBox="0 0 56 24"><path fill="#FFFFFF" d="M38 1h1v1h-1zM39 2h1v1h-1zM38 3h1v1h-1zM34 6h1v1h-1z"/><path fill="#1A1A1A" d="M34 4h1v1h-1zM38 4h1v1h-1zM33 5h1v1h-1zM38 5h1v1h-1zM33 6h1v1h-1zM38 6h1v1h-1zM33 7h1v1h-1zM38 7h1v1h-1zM33 8h1v1h-1zM38 8h1v1h-1zM34 9h1v1h-1zM38 9h1v1h-1zM34 10h1v1h-1zM37 10h1v1h-1zM35 11h1v1h-1zM37 11h1v1h-1zM36 12h2v1h-2zM36 13h2v1h-2z"/><path fill="#4E8A3F" d="M35 4h1v1h-1zM37 4h1v1h-1zM34 5h2v1h-2zM37 5h1v1h-1zM35 6h1v1h-1zM37 6h1v1h-1zM34 7h2v1h-2zM37 7h1v1h-1zM34 8h2v1h-2zM37 8h1v1h-1zM35 9h1v1h-1zM37 9h1v1h-1zM35 10h1v1h-1z"/><path fill="#2F5A26" d="M36 4h1v1h-1zM36 5h1v1h-1zM36 6h1v1h-1zM36 7h1v1h-1zM36 8h1v1h-1zM36 9h1v1h-1zM36 10h1v1h-1zM36 11h1v1h-1z"/></symbol>
<symbol id="hanzhongli-x-work" viewBox="0 0 56 24"><path fill="#C2CAD2" d="M40 2h7v1h-7zM42 5h9v1h-9zM40 8h5v1h-5z"/></symbol>
<symbol id="hanzhongli-p-ask" viewBox="0 0 56 24"><path fill="#1A1A1A" d="M38 1h2v1h-2zM37 2h1v1h-1zM36 3h1v1h-1zM35 4h1v1h-1zM35 5h1v1h-1zM35 6h1v1h-1zM35 7h1v1h-1zM36 8h1v1h-1zM36 9h1v1h-1zM39 9h1v1h-1zM37 10h1v1h-1zM39 10h1v1h-1zM38 11h2v1h-2zM38 12h2v1h-2z"/><path fill="#4E8A3F" d="M38 2h2v1h-2zM37 3h1v1h-1zM39 3h1v1h-1zM36 4h2v1h-2zM39 4h1v1h-1zM37 5h1v1h-1zM39 5h1v1h-1zM36 6h2v1h-2zM39 6h1v1h-1zM36 7h2v1h-2zM39 7h1v1h-1zM37 8h1v1h-1zM39 8h1v1h-1zM37 9h1v1h-1z"/><path fill="#2F5A26" d="M38 3h1v1h-1zM38 4h1v1h-1zM38 5h1v1h-1zM38 6h1v1h-1zM38 7h1v1h-1zM38 8h1v1h-1zM38 9h1v1h-1zM38 10h1v1h-1z"/><path fill="#FFFFFF" d="M36 5h1v1h-1z"/></symbol>
<symbol id="hanzhongli-x-ask" viewBox="0 0 56 24"><path fill="#C9A227" d="M9 4h3v1h-3z"/><path fill="#8A6A3F" d="M10 5h1v1h-1zM10 6h1v1h-1zM10 7h1v1h-1zM10 8h1v1h-1zM10 9h1v1h-1zM10 10h1v1h-1zM10 11h1v1h-1zM10 12h1v1h-1zM10 13h1v1h-1zM10 14h1v1h-1zM10 15h1v1h-1zM10 16h1v1h-1zM10 17h1v1h-1zM10 18h1v1h-1zM10 19h1v1h-1zM10 20h1v1h-1zM10 21h1v1h-1z"/></symbol>
<symbol id="hanzhongli-p-done" viewBox="0 0 56 24"><path fill="#1A1A1A" d="M35 4h2v1h-2zM34 5h1v1h-1zM37 5h1v1h-1zM33 6h1v1h-1zM37 6h1v1h-1zM32 7h1v1h-1zM37 7h1v1h-1zM32 8h1v1h-1zM37 8h1v1h-1zM32 9h1v1h-1zM37 9h1v1h-1zM32 10h1v1h-1zM37 10h1v1h-1zM33 11h1v1h-1zM37 11h1v1h-1zM33 12h1v1h-1zM36 12h1v1h-1zM34 13h1v1h-1zM36 13h1v1h-1zM35 14h2v1h-2zM35 15h2v1h-2z"/><path fill="#4E8A3F" d="M35 5h2v1h-2zM34 6h1v1h-1zM36 6h1v1h-1zM33 7h2v1h-2zM36 7h1v1h-1zM34 8h1v1h-1zM36 8h1v1h-1zM33 9h2v1h-2zM36 9h1v1h-1zM33 10h2v1h-2zM36 10h1v1h-1zM34 11h1v1h-1zM36 11h1v1h-1zM34 12h1v1h-1z"/><path fill="#2F5A26" d="M35 6h1v1h-1zM35 7h1v1h-1zM35 8h1v1h-1zM35 9h1v1h-1zM35 10h1v1h-1zM35 11h1v1h-1zM35 12h1v1h-1zM35 13h1v1h-1z"/><path fill="#FFFFFF" d="M33 8h1v1h-1z"/></symbol>
<symbol id="hanzhongli-x-done" viewBox="0 0 56 24"><path fill="#C9A227" d="M38 5h1v1h-1z"/><path fill="#FFFFFF" d="M39 7h1v1h-1z"/></symbol>
<symbol id="hanzhongli-f-ask" viewBox="0 0 56 24"><path fill="#B5453C" d="M11 8h4v1h-4zM11 9h5v1h-5zM11 11h5v1h-5z"/><path fill="#8E2F27" d="M11 10h4v1h-4zM11 12h4v1h-4z"/></symbol>
<symbol id="ludongbin-body" viewBox="0 0 56 24"><path fill="#1A1A1A" d="M26 2h4v1h-4zM25 3h1v1h-1zM30 3h1v1h-1zM24 4h1v1h-1zM31 4h1v1h-1zM24 5h1v1h-1zM31 5h1v1h-1zM24 6h9v1h-9zM24 7h1v1h-1zM32 7h2v1h-2zM24 8h1v1h-1zM32 8h1v1h-1zM24 9h1v1h-1zM32 9h1v1h-1zM24 10h1v1h-1zM32 10h1v1h-1zM24 11h1v1h-1zM32 11h1v1h-1zM24 12h1v1h-1zM32 12h1v1h-1zM26 13h2v1h-2zM29 13h1v1h-1zM22 14h1v1h-1zM33 14h1v1h-1zM22 15h1v1h-1zM33 15h1v1h-1zM22 16h1v1h-1zM33 16h1v1h-1zM22 17h1v1h-1zM27 17h1v1h-1zM29 17h1v1h-1zM33 17h1v1h-1zM22 18h1v1h-1zM33 18h1v1h-1zM22 19h1v1h-1zM33 19h1v1h-1zM22 20h1v1h-1zM33 20h1v1h-1zM22 21h1v1h-1zM33 21h1v1h-1zM22 22h1v1h-1zM33 22h1v1h-1z"/><path fill="#3EBAD3" d="M26 3h4v1h-4zM25 4h6v1h-6zM23 14h2v1h-2zM31 14h2v1h-2zM23 15h2v1h-2zM31 15h2v1h-2zM23 16h2v1h-2zM31 16h2v1h-2zM23 17h2v1h-2zM31 17h2v1h-2zM23 19h2v1h-2zM31 19h2v1h-2zM23 20h2v1h-2zM31 20h2v1h-2z"/><path fill="#1F5E6A" d="M25 5h6v1h-6zM25 14h1v1h-1zM30 14h1v1h-1zM25 15h1v1h-1zM30 15h1v1h-1zM25 16h1v1h-1zM30 16h1v1h-1zM25 17h1v1h-1zM30 17h1v1h-1zM23 18h8v1h-8zM32 18h1v1h-1zM25 19h1v1h-1zM30 19h1v1h-1zM25 20h1v1h-1zM30 20h1v1h-1zM23 21h10v1h-10zM23 22h10v1h-10z"/><path fill="#3A3330" d="M25 7h1v1h-1zM28 13h1v1h-1zM27 14h1v1h-1zM29 14h1v1h-1zM27 15h1v1h-1zM29 15h1v1h-1zM27 16h1v1h-1zM29 16h1v1h-1z"/><path fill="#C9A47C" d="M26 7h6v1h-6zM28 11h1v1h-1zM27 12h2v1h-2z"/><path fill="#E8C9A0" d="M25 8h7v1h-7zM25 9h1v1h-1zM28 9h1v1h-1zM31 9h1v1h-1zM25 10h1v1h-1zM28 10h1v1h-1zM31 10h1v1h-1zM25 11h3v1h-3zM29 11h3v1h-3zM25 12h2v1h-2zM29 12h3v1h-3z"/><path fill="#2A2A2A" d="M26 9h2v1h-2zM29 9h2v1h-2zM26 10h2v1h-2zM29 10h2v1h-2z"/><path fill="#2E8A9C" d="M26 14h1v1h-1zM28 14h1v1h-1zM26 15h1v1h-1zM28 15h1v1h-1zM26 16h1v1h-1zM28 16h1v1h-1zM26 17h1v1h-1zM28 17h1v1h-1zM26 19h4v1h-4zM26 20h4v1h-4z"/><path fill="#8A939C" d="M31 18h1v1h-1z"/></symbol>
<symbol id="ludongbin-p-rest" viewBox="0 0 56 24"><path fill="#1A1A1A" d="M34 4h2v1h-2zM34 5h1v1h-1zM34 6h1v1h-1zM34 7h1v1h-1zM34 8h1v1h-1zM34 9h1v1h-1zM34 10h1v1h-1zM34 11h1v1h-1zM34 12h1v1h-1zM34 13h1v1h-1zM34 14h1v1h-1zM34 15h1v1h-1zM34 16h1v1h-1zM34 17h1v1h-1zM33 18h3v1h-3zM34 21h1v1h-1z"/><path fill="#C2CAD2" d="M35 5h1v1h-1zM35 6h1v1h-1zM35 7h1v1h-1zM35 8h1v1h-1zM35 9h1v1h-1zM35 10h1v1h-1zM35 11h1v1h-1zM35 12h1v1h-1zM35 13h1v1h-1zM35 14h1v1h-1zM35 15h1v1h-1zM35 16h1v1h-1zM35 17h1v1h-1z"/><path fill="#8A6A3F" d="M34 19h1v1h-1zM34 20h1v1h-1z"/></symbol>
<symbol id="ludongbin-x-rest" viewBox="0 0 56 24"></symbol>
<symbol id="ludongbin-p-work" viewBox="0 0 56 24"><path fill="#1A1A1A" d="M36 0h1v1h-1zM36 1h1v1h-1zM36 2h2v1h-2zM36 3h1v1h-1zM36 4h1v1h-1zM36 5h1v1h-1zM36 6h1v1h-1zM36 7h1v1h-1zM36 8h1v1h-1zM36 9h1v1h-1zM36 10h1v1h-1zM36 11h1v1h-1zM36 12h1v1h-1zM36 13h1v1h-1zM36 14h1v1h-1zM36 15h1v1h-1zM35 16h3v1h-3zM36 19h1v1h-1z"/><path fill="#C2CAD2" d="M37 0h1v1h-1zM37 1h1v1h-1zM37 3h1v1h-1zM37 4h1v1h-1zM37 6h1v1h-1zM37 7h1v1h-1zM37 8h1v1h-1zM37 9h1v1h-1zM37 10h1v1h-1zM37 12h1v1h-1zM37 13h1v1h-1zM37 14h1v1h-1zM37 15h1v1h-1z"/><path fill="#FFFFFF" d="M37 5h1v1h-1zM37 11h1v1h-1z"/><path fill="#8A6A3F" d="M36 17h1v1h-1zM36 18h1v1h-1z"/></symbol>
<symbol id="ludongbin-x-work" viewBox="0 0 56 24"><path fill="#FFFFFF" d="M38 0h1v1h-1zM38 3h1v1h-1z"/><path fill="#C2CAD2" d="M39 1h1v1h-1zM40 2h1v1h-1zM41 3h1v1h-1z"/></symbol>
<symbol id="ludongbin-p-ask" viewBox="0 0 56 24"><path fill="#1A1A1A" d="M37 0h2v1h-2zM37 1h1v1h-1zM37 2h1v1h-1zM37 3h1v1h-1zM37 4h1v1h-1zM37 5h1v1h-1zM37 6h1v1h-1zM37 7h1v1h-1zM37 8h1v1h-1zM37 9h1v1h-1zM37 10h1v1h-1zM37 11h1v1h-1zM37 12h1v1h-1zM37 13h1v1h-1zM36 14h3v1h-3zM37 17h1v1h-1z"/><path fill="#C2CAD2" d="M38 1h1v1h-1zM38 2h1v1h-1zM38 3h1v1h-1zM38 4h1v1h-1zM38 5h1v1h-1zM38 6h1v1h-1zM38 7h1v1h-1zM38 8h1v1h-1zM38 9h1v1h-1zM38 10h1v1h-1zM38 11h1v1h-1zM38 12h1v1h-1zM38 13h1v1h-1z"/><path fill="#8A6A3F" d="M37 15h1v1h-1zM37 16h1v1h-1z"/></symbol>
<symbol id="ludongbin-x-ask" viewBox="0 0 56 24"><path fill="#C9A227" d="M9 4h3v1h-3z"/><path fill="#8A6A3F" d="M10 5h1v1h-1zM10 6h1v1h-1zM10 7h1v1h-1zM10 8h1v1h-1zM10 9h1v1h-1zM10 10h1v1h-1zM10 11h1v1h-1zM10 12h1v1h-1zM10 13h1v1h-1zM10 14h1v1h-1zM10 15h1v1h-1zM10 16h1v1h-1zM10 17h1v1h-1zM10 18h1v1h-1zM10 19h1v1h-1zM10 20h1v1h-1zM10 21h1v1h-1z"/></symbol>
<symbol id="ludongbin-p-done" viewBox="0 0 56 24"><path fill="#1A1A1A" d="M34 3h2v1h-2zM34 4h1v1h-1zM34 5h1v1h-1zM34 6h1v1h-1zM34 7h1v1h-1zM34 8h1v1h-1zM34 9h1v1h-1zM34 10h1v1h-1zM34 11h1v1h-1zM34 12h1v1h-1zM34 13h1v1h-1zM34 14h1v1h-1zM34 15h1v1h-1zM34 16h1v1h-1zM33 17h3v1h-3zM34 20h1v1h-1z"/><path fill="#C2CAD2" d="M35 4h1v1h-1zM35 5h1v1h-1zM35 6h1v1h-1zM35 7h1v1h-1zM35 8h1v1h-1zM35 9h1v1h-1zM35 10h1v1h-1zM35 11h1v1h-1zM35 12h1v1h-1zM35 13h1v1h-1zM35 14h1v1h-1zM35 15h1v1h-1zM35 16h1v1h-1z"/><path fill="#8A6A3F" d="M34 18h1v1h-1zM34 19h1v1h-1z"/></symbol>
<symbol id="ludongbin-x-done" viewBox="0 0 56 24"><path fill="#C9A227" d="M36 4h1v1h-1z"/><path fill="#FFFFFF" d="M37 6h1v1h-1z"/></symbol>
<symbol id="ludongbin-f-ask" viewBox="0 0 56 24"><path fill="#B5453C" d="M11 8h4v1h-4zM11 9h5v1h-5zM11 11h5v1h-5z"/><path fill="#8E2F27" d="M11 10h4v1h-4zM11 12h4v1h-4z"/></symbol>
<symbol id="tieguali-body" viewBox="0 0 56 24"><path fill="#1A1A1A" d="M25 3h1v1h-1zM27 3h1v1h-1zM29 3h1v1h-1zM24 4h1v1h-1zM31 4h1v1h-1zM24 5h1v1h-1zM31 5h1v1h-1zM23 6h1v1h-1zM33 6h1v1h-1zM24 7h1v1h-1zM32 7h1v1h-1zM24 8h1v1h-1zM32 8h1v1h-1zM24 9h1v1h-1zM32 9h1v1h-1zM24 10h1v1h-1zM32 10h1v1h-1zM24 11h1v1h-1zM32 11h1v1h-1zM24 12h1v1h-1zM32 12h1v1h-1zM24 13h1v1h-1zM32 13h1v1h-1zM26 14h1v1h-1zM29 14h2v1h-2zM23 15h1v1h-1zM32 15h1v1h-1zM23 16h1v1h-1zM32 16h1v1h-1zM23 17h1v1h-1zM32 17h1v1h-1zM23 18h1v1h-1zM32 18h1v1h-1zM23 19h1v1h-1zM32 19h1v1h-1zM23 20h1v1h-1zM32 20h1v1h-1zM23 21h1v1h-1zM32 21h1v1h-1zM23 22h1v1h-1zM32 22h1v1h-1zM23 23h1v1h-1zM32 23h1v1h-1z"/><path fill="#D2CEC5" d="M25 4h2v1h-2zM28 4h1v1h-1zM30 4h1v1h-1zM25 5h6v1h-6zM25 7h7v1h-7zM25 13h1v1h-1zM27 13h2v1h-2zM31 13h1v1h-1zM27 14h2v1h-2zM27 15h2v1h-2z"/><path fill="#C9A227" d="M24 6h9v1h-9z"/><path fill="#C9A47C" d="M25 8h7v1h-7zM28 12h1v1h-1z"/><path fill="#E8C9A0" d="M25 9h7v1h-7zM25 10h1v1h-1zM28 10h1v1h-1zM31 10h1v1h-1zM25 11h1v1h-1zM28 11h1v1h-1zM31 11h1v1h-1zM25 12h3v1h-3zM29 12h3v1h-3zM26 13h1v1h-1zM29 13h2v1h-2z"/><path fill="#2A2A2A" d="M26 10h2v1h-2zM29 10h2v1h-2zM26 11h2v1h-2zM29 11h2v1h-2z"/><path fill="#7A808A" d="M24 15h1v1h-1zM31 15h1v1h-1zM24 16h1v1h-1zM31 16h1v1h-1zM24 17h1v1h-1zM31 17h1v1h-1zM24 18h1v1h-1zM31 18h1v1h-1zM24 20h1v1h-1zM31 20h1v1h-1zM24 21h1v1h-1zM31 21h1v1h-1z"/><path fill="#3D4145" d="M25 15h1v1h-1zM30 15h1v1h-1zM25 16h1v1h-1zM30 16h1v1h-1zM25 17h1v1h-1zM30 17h1v1h-1zM25 18h1v1h-1zM30 18h1v1h-1zM24 19h6v1h-6zM31 19h1v1h-1zM25 20h1v1h-1zM30 20h1v1h-1zM25 21h1v1h-1zM30 21h1v1h-1zM24 22h8v1h-8zM24 23h8v1h-8z"/><path fill="#5A5F66" d="M26 15h1v1h-1zM29 15h1v1h-1zM26 16h4v1h-4zM26 17h4v1h-4zM26 18h4v1h-4zM26 20h4v1h-4zM26 21h4v1h-4z"/><path fill="#8A939C" d="M30 19h1v1h-1z"/></symbol>
<symbol id="tieguali-p-rest" viewBox="0 0 56 24"><path fill="#1A1A1A" d="M20 6h3v1h-3zM21 7h1v1h-1zM21 8h1v1h-1zM21 9h1v1h-1zM21 10h1v1h-1zM23 11h3v1h-3zM23 12h1v1h-1zM25 12h1v1h-1zM23 13h1v1h-1zM25 13h1v1h-1zM23 14h3v1h-3zM21 15h1v1h-1zM21 16h1v1h-1zM21 17h1v1h-1zM21 18h1v1h-1zM21 19h1v1h-1zM21 20h1v1h-1zM21 21h1v1h-1zM21 22h1v1h-1zM21 23h1v1h-1z"/><path fill="#8A6A3F" d="M22 7h1v1h-1zM22 8h1v1h-1zM22 9h1v1h-1zM22 10h1v1h-1zM22 15h1v1h-1zM22 16h1v1h-1zM22 17h1v1h-1zM22 18h1v1h-1zM22 19h1v1h-1zM22 20h1v1h-1zM22 21h1v1h-1zM22 22h1v1h-1zM22 23h1v1h-1z"/><path fill="#3D4145" d="M24 12h1v1h-1z"/><path fill="#7A808A" d="M24 13h1v1h-1z"/></symbol>
<symbol id="tieguali-x-rest" viewBox="0 0 56 24"></symbol>
<symbol id="tieguali-p-work" viewBox="0 0 56 24"><path fill="#1A1A1A" d="M18 4h3v1h-3zM19 5h1v1h-1zM19 6h1v1h-1zM19 7h1v1h-1zM21 9h3v1h-3zM21 10h1v1h-1zM23 10h1v1h-1zM21 11h1v1h-1zM23 11h1v1h-1zM21 12h3v1h-3zM19 14h1v1h-1zM19 15h1v1h-1zM19 16h1v1h-1zM19 17h1v1h-1zM19 18h1v1h-1zM19 19h1v1h-1zM19 20h1v1h-1zM19 21h1v1h-1zM19 22h1v1h-1zM19 23h1v1h-1z"/><path fill="#8A6A3F" d="M20 5h1v1h-1zM20 6h1v1h-1zM20 7h1v1h-1zM20 14h1v1h-1zM20 15h1v1h-1zM20 16h1v1h-1zM20 17h1v1h-1zM20 18h1v1h-1zM20 19h1v1h-1zM20 20h1v1h-1zM20 21h1v1h-1zM20 22h1v1h-1zM20 23h1v1h-1z"/><path fill="#FFFFFF" d="M24 8h1v1h-1zM22 10h1v1h-1zM22 11h1v1h-1zM24 13h1v1h-1z"/></symbol>
<symbol id="tieguali-x-work" viewBox="0 0 56 24"><path fill="#FFFFFF" d="M17 4h1v1h-1zM17 6h1v1h-1zM15 11h1v1h-1zM14 14h1v1h-1z"/><path fill="#C9A227" d="M16 6h1v1h-1zM15 8h1v1h-1z"/></symbol>
<symbol id="tieguali-p-ask" viewBox="0 0 56 24"><path fill="#1A1A1A" d="M17 2h3v1h-3zM18 3h1v1h-1zM18 4h1v1h-1zM18 5h1v1h-1zM18 6h1v1h-1zM20 7h3v1h-3zM20 8h1v1h-1zM22 8h1v1h-1zM20 9h1v1h-1zM22 9h1v1h-1zM20 10h3v1h-3zM18 11h1v1h-1zM18 12h1v1h-1zM18 13h1v1h-1zM18 14h1v1h-1zM18 15h1v1h-1zM18 16h1v1h-1zM18 17h1v1h-1zM18 18h1v1h-1zM18 19h1v1h-1zM18 20h1v1h-1zM18 21h1v1h-1zM18 22h1v1h-1z"/><path fill="#8A6A3F" d="M19 3h1v1h-1zM19 4h1v1h-1zM19 5h1v1h-1zM19 6h1v1h-1zM19 11h1v1h-1zM19 12h1v1h-1zM19 13h1v1h-1zM19 14h1v1h-1zM19 15h1v1h-1zM19 16h1v1h-1zM19 17h1v1h-1zM19 18h1v1h-1zM19 19h1v1h-1zM19 20h1v1h-1zM19 21h1v1h-1zM19 22h1v1h-1z"/><path fill="#3D4145" d="M21 8h1v1h-1z"/><path fill="#7A808A" d="M21 9h1v1h-1z"/></symbol>
<symbol id="tieguali-x-ask" viewBox="0 0 56 24"><path fill="#C9A227" d="M9 4h3v1h-3z"/><path fill="#8A6A3F" d="M10 5h1v1h-1zM10 6h1v1h-1zM10 7h1v1h-1zM10 8h1v1h-1zM10 9h1v1h-1zM10 10h1v1h-1zM10 11h1v1h-1zM10 12h1v1h-1zM10 13h1v1h-1zM10 14h1v1h-1zM10 15h1v1h-1zM10 16h1v1h-1zM10 17h1v1h-1zM10 18h1v1h-1zM10 19h1v1h-1zM10 20h1v1h-1zM10 21h1v1h-1z"/></symbol>
<symbol id="tieguali-p-done" viewBox="0 0 56 24"><path fill="#1A1A1A" d="M20 5h3v1h-3zM21 6h1v1h-1zM21 7h1v1h-1zM21 8h1v1h-1zM21 9h1v1h-1zM23 10h3v1h-3zM23 11h1v1h-1zM25 11h1v1h-1zM23 12h1v1h-1zM25 12h1v1h-1zM23 13h3v1h-3zM21 14h1v1h-1zM21 15h1v1h-1zM21 16h1v1h-1zM21 17h1v1h-1zM21 18h1v1h-1zM21 19h1v1h-1zM21 20h1v1h-1zM21 21h1v1h-1zM21 22h1v1h-1zM21 23h1v1h-1z"/><path fill="#8A6A3F" d="M22 6h1v1h-1zM22 7h1v1h-1zM22 8h1v1h-1zM22 9h1v1h-1zM22 14h1v1h-1zM22 15h1v1h-1zM22 16h1v1h-1zM22 17h1v1h-1zM22 18h1v1h-1zM22 19h1v1h-1zM22 20h1v1h-1zM22 21h1v1h-1zM22 22h1v1h-1zM22 23h1v1h-1z"/><path fill="#3D4145" d="M24 11h1v1h-1z"/><path fill="#7A808A" d="M24 12h1v1h-1z"/></symbol>
<symbol id="tieguali-x-done" viewBox="0 0 56 24"><path fill="#C9A227" d="M19 6h1v1h-1z"/><path fill="#FFFFFF" d="M18 8h1v1h-1z"/></symbol>
<symbol id="tieguali-f-ask" viewBox="0 0 56 24"><path fill="#B5453C" d="M11 8h4v1h-4zM11 9h5v1h-5zM11 11h5v1h-5z"/><path fill="#8E2F27" d="M11 10h4v1h-4zM11 12h4v1h-4z"/></symbol>
<symbol id="zhangguolao-body" viewBox="0 0 56 24"><path fill="#1A1A1A" d="M26 5h4v1h-4zM25 6h1v1h-1zM30 6h1v1h-1zM24 7h9v1h-9zM22 8h1v1h-1zM25 8h1v1h-1zM30 8h1v1h-1zM33 8h1v1h-1zM22 9h3v1h-3zM32 9h2v1h-2zM24 10h1v1h-1zM32 10h1v1h-1zM24 11h1v1h-1zM32 11h1v1h-1zM24 12h1v1h-1zM32 12h1v1h-1zM24 13h1v1h-1zM32 13h1v1h-1zM24 14h1v1h-1zM32 14h1v1h-1zM26 15h1v1h-1zM30 15h1v1h-1zM22 16h1v1h-1zM26 16h1v1h-1zM30 16h1v1h-1zM33 16h1v1h-1zM22 17h1v1h-1zM27 17h1v1h-1zM29 17h1v1h-1zM33 17h1v1h-1zM22 18h1v1h-1zM27 18h1v1h-1zM29 18h1v1h-1zM33 18h1v1h-1zM22 19h1v1h-1zM27 19h1v1h-1zM29 19h1v1h-1zM33 19h1v1h-1zM22 20h1v1h-1zM33 20h1v1h-1zM22 21h1v1h-1zM33 21h1v1h-1zM22 22h1v1h-1zM33 22h1v1h-1zM22 23h1v1h-1zM33 23h1v1h-1z"/><path fill="#2B533A" d="M26 6h4v1h-4zM23 8h2v1h-2zM26 8h4v1h-4zM31 8h2v1h-2zM24 16h1v1h-1zM31 16h1v1h-1zM24 17h1v1h-1zM31 17h1v1h-1zM24 18h1v1h-1zM31 18h1v1h-1zM24 19h1v1h-1zM31 19h1v1h-1zM23 20h8v1h-8zM32 20h1v1h-1zM24 21h1v1h-1zM31 21h1v1h-1zM24 22h1v1h-1zM31 22h1v1h-1zM23 23h10v1h-10z"/><path fill="#C9A47C" d="M25 9h7v1h-7zM28 13h1v1h-1zM27 14h2v1h-2z"/><path fill="#E8C9A0" d="M25 10h7v1h-7zM25 11h1v1h-1zM28 11h1v1h-1zM31 11h1v1h-1zM25 12h1v1h-1zM28 12h1v1h-1zM31 12h1v1h-1zM25 13h3v1h-3zM29 13h3v1h-3zM25 14h2v1h-2zM29 14h3v1h-3z"/><path fill="#2A2A2A" d="M26 11h2v1h-2zM29 11h2v1h-2zM26 12h2v1h-2zM29 12h2v1h-2z"/><path fill="#D2CEC5" d="M27 15h3v1h-3zM27 16h3v1h-3zM28 17h1v1h-1zM28 18h1v1h-1zM28 19h1v1h-1z"/><path fill="#55A573" d="M23 16h1v1h-1zM32 16h1v1h-1zM23 17h1v1h-1zM32 17h1v1h-1zM23 18h1v1h-1zM32 18h1v1h-1zM23 19h1v1h-1zM32 19h1v1h-1zM23 21h1v1h-1zM32 21h1v1h-1zM23 22h1v1h-1zM32 22h1v1h-1z"/><path fill="#3F7A55" d="M25 16h1v1h-1zM25 17h2v1h-2zM30 17h1v1h-1zM25 18h2v1h-2zM30 18h1v1h-1zM25 19h2v1h-2zM30 19h1v1h-1zM25 21h6v1h-6zM25 22h6v1h-6z"/><path fill="#8A939C" d="M31 20h1v1h-1z"/></symbol>
<symbol id="zhangguolao-p-rest" viewBox="0 0 56 24"><path fill="#1A1A1A" d="M33 17h5v1h-5zM33 18h1v1h-1zM37 18h1v1h-1zM33 19h1v1h-1zM37 19h1v1h-1zM33 20h1v1h-1zM37 20h1v1h-1zM33 21h1v1h-1zM37 21h1v1h-1zM33 22h5v1h-5z"/><path fill="#8A6A3F" d="M34 18h3v1h-3zM34 20h3v1h-3zM34 21h3v1h-3z"/><path fill="#F2EBD8" d="M34 19h1v1h-1zM36 19h1v1h-1z"/><path fill="#FFFFFF" d="M35 19h1v1h-1z"/></symbol>
<symbol id="zhangguolao-x-rest" viewBox="0 0 56 24"></symbol>
<symbol id="zhangguolao-p-work" viewBox="0 0 56 24"><path fill="#8A6A3F" d="M37 11h1v1h-1zM37 12h1v1h-1zM37 13h1v1h-1zM36 16h3v1h-3zM36 18h3v1h-3zM36 19h3v1h-3z"/><path fill="#1A1A1A" d="M37 14h1v1h-1zM35 15h5v1h-5zM35 16h1v1h-1zM39 16h1v1h-1zM35 17h1v1h-1zM39 17h1v1h-1zM35 18h1v1h-1zM39 18h1v1h-1zM35 19h1v1h-1zM39 19h1v1h-1zM35 20h5v1h-5z"/><path fill="#FFFFFF" d="M36 17h2v1h-2z"/><path fill="#F2EBD8" d="M38 17h1v1h-1z"/></symbol>
<symbol id="zhangguolao-x-work" viewBox="0 0 56 24"><path fill="#C2CAD2" d="M40 13h4v1h-4zM41 15h5v1h-5zM40 17h3v1h-3z"/></symbol>
<symbol id="zhangguolao-p-ask" viewBox="0 0 56 24"><path fill="#1A1A1A" d="M36 13h4v1h-4zM36 14h1v1h-1zM36 15h1v1h-1zM36 16h1v1h-1zM36 17h1v1h-1zM36 18h4v1h-4z"/><path fill="#8A6A3F" d="M37 14h3v1h-3zM37 16h3v1h-3zM37 17h3v1h-3z"/><path fill="#F2EBD8" d="M37 15h1v1h-1zM39 15h1v1h-1z"/><path fill="#FFFFFF" d="M38 15h1v1h-1z"/></symbol>
<symbol id="zhangguolao-x-ask" viewBox="0 0 56 24"><path fill="#C9A227" d="M9 4h3v1h-3z"/><path fill="#8A6A3F" d="M10 5h1v1h-1zM10 6h1v1h-1zM10 7h1v1h-1zM10 8h1v1h-1zM10 9h1v1h-1zM10 10h1v1h-1zM10 11h1v1h-1zM10 12h1v1h-1zM10 13h1v1h-1zM10 14h1v1h-1zM10 15h1v1h-1zM10 16h1v1h-1zM10 17h1v1h-1zM10 18h1v1h-1zM10 19h1v1h-1zM10 20h1v1h-1zM10 21h1v1h-1z"/></symbol>
<symbol id="zhangguolao-p-done" viewBox="0 0 56 24"><path fill="#1A1A1A" d="M33 16h5v1h-5zM33 17h1v1h-1zM37 17h1v1h-1zM33 18h1v1h-1zM37 18h1v1h-1zM33 19h1v1h-1zM37 19h1v1h-1zM33 20h1v1h-1zM37 20h1v1h-1zM33 21h5v1h-5z"/><path fill="#8A6A3F" d="M34 17h3v1h-3zM34 19h3v1h-3zM34 20h3v1h-3z"/><path fill="#F2EBD8" d="M34 18h1v1h-1zM36 18h1v1h-1z"/><path fill="#FFFFFF" d="M35 18h1v1h-1z"/></symbol>
<symbol id="zhangguolao-x-done" viewBox="0 0 56 24"><path fill="#C9A227" d="M38 17h1v1h-1z"/><path fill="#FFFFFF" d="M39 19h1v1h-1z"/></symbol>
<symbol id="zhangguolao-f-ask" viewBox="0 0 56 24"><path fill="#B5453C" d="M11 8h4v1h-4zM11 9h5v1h-5zM11 11h5v1h-5z"/><path fill="#8E2F27" d="M11 10h4v1h-4zM11 12h4v1h-4z"/></symbol>
<symbol id="hexiangu-body" viewBox="0 0 56 24"><path fill="#1A1A1A" d="M25 1h3v1h-3zM30 1h3v1h-3zM24 2h1v1h-1zM27 2h1v1h-1zM29 2h1v1h-1zM32 2h1v1h-1zM24 3h1v1h-1zM27 3h1v1h-1zM29 3h1v1h-1zM32 3h1v1h-1zM24 4h1v1h-1zM32 4h1v1h-1zM24 5h1v1h-1zM32 5h1v1h-1zM23 6h1v1h-1zM33 6h1v1h-1zM22 7h1v1h-1zM24 7h1v1h-1zM32 7h1v1h-1zM34 7h1v1h-1zM22 8h1v1h-1zM24 8h1v1h-1zM32 8h1v1h-1zM34 8h1v1h-1zM22 9h1v1h-1zM24 9h1v1h-1zM32 9h1v1h-1zM34 9h1v1h-1zM22 10h1v1h-1zM24 10h1v1h-1zM32 10h1v1h-1zM34 10h1v1h-1zM23 11h2v1h-2zM32 11h2v1h-2zM24 12h1v1h-1zM32 12h1v1h-1zM26 13h1v1h-1zM29 13h1v1h-1zM23 14h1v1h-1zM32 14h1v1h-1zM23 15h1v1h-1zM32 15h1v1h-1zM23 16h1v1h-1zM32 16h1v1h-1zM23 17h1v1h-1zM32 17h1v1h-1zM23 18h1v1h-1zM32 18h1v1h-1zM23 19h1v1h-1zM32 19h1v1h-1zM21 20h1v1h-1zM34 20h1v1h-1zM21 21h1v1h-1zM34 21h1v1h-1zM21 22h1v1h-1zM34 22h1v1h-1z"/><path fill="#3A3330" d="M25 2h2v1h-2zM30 2h2v1h-2zM25 3h2v1h-2zM30 3h2v1h-2zM25 4h7v1h-7zM25 5h7v1h-7zM24 6h9v1h-9zM23 7h1v1h-1zM33 7h1v1h-1zM23 8h1v1h-1zM33 8h1v1h-1zM23 9h1v1h-1zM33 9h1v1h-1zM23 10h1v1h-1zM33 10h1v1h-1z"/><path fill="#C9A47C" d="M25 7h7v1h-7zM28 11h1v1h-1zM27 12h2v1h-2zM27 13h2v1h-2z"/><path fill="#E8C9A0" d="M25 8h7v1h-7zM25 9h1v1h-1zM28 9h1v1h-1zM31 9h1v1h-1zM25 10h1v1h-1zM28 10h1v1h-1zM31 10h1v1h-1zM25 11h3v1h-3zM29 11h3v1h-3zM25 12h2v1h-2zM29 12h3v1h-3z"/><path fill="#2A2A2A" d="M26 9h2v1h-2zM29 9h2v1h-2zM26 10h2v1h-2zM29 10h2v1h-2z"/><path fill="#F87AA5" d="M24 14h1v1h-1zM31 14h1v1h-1zM24 15h1v1h-1zM31 15h1v1h-1zM24 16h1v1h-1zM31 16h1v1h-1zM24 17h1v1h-1zM31 17h1v1h-1zM24 19h1v1h-1zM31 19h1v1h-1zM22 20h1v1h-1zM33 20h1v1h-1z"/><path fill="#7D3D53" d="M25 14h1v1h-1zM30 14h1v1h-1zM25 15h1v1h-1zM30 15h1v1h-1zM25 16h1v1h-1zM30 16h1v1h-1zM25 17h1v1h-1zM30 17h1v1h-1zM24 18h6v1h-6zM31 18h1v1h-1zM25 19h1v1h-1zM30 19h1v1h-1zM23 20h1v1h-1zM32 20h1v1h-1zM22 21h12v1h-12zM22 22h12v1h-12z"/><path fill="#B85A7A" d="M26 14h4v1h-4zM26 15h4v1h-4zM26 16h4v1h-4zM26 17h4v1h-4zM26 19h4v1h-4zM24 20h8v1h-8z"/><path fill="#8A939C" d="M30 18h1v1h-1z"/></symbol>
<symbol id="hexiangu-p-rest" viewBox="0 0 56 24"><path fill="#1A1A1A" d="M33 3h3v1h-3zM32 4h1v1h-1zM35 4h1v1h-1zM32 5h1v1h-1zM36 5h1v1h-1zM32 6h1v1h-1zM36 6h1v1h-1zM32 7h5v1h-5zM33 14h3v1h-3z"/><path fill="#7D3D53" d="M33 4h1v1h-1z"/><path fill="#F87AA5" d="M34 4h1v1h-1zM33 5h1v1h-1zM35 5h1v1h-1zM33 6h3v1h-3z"/><path fill="#FFFFFF" d="M34 5h1v1h-1z"/><path fill="#4E8A3F" d="M34 8h1v1h-1zM34 9h1v1h-1zM34 10h1v1h-1zM34 11h1v1h-1zM34 12h1v1h-1zM34 13h1v1h-1z"/></symbol>
<symbol id="hexiangu-x-rest" viewBox="0 0 56 24"></symbol>
<symbol id="hexiangu-p-work" viewBox="0 0 56 24"><path fill="#1A1A1A" d="M35 1h3v1h-3zM33 2h1v1h-1zM37 2h1v1h-1zM33 3h1v1h-1zM38 3h1v1h-1zM33 4h1v1h-1zM38 4h1v1h-1zM33 5h6v1h-6zM35 12h3v1h-3z"/><path fill="#7D3D53" d="M34 2h1v1h-1z"/><path fill="#F87AA5" d="M35 2h2v1h-2zM34 3h1v1h-1zM36 3h2v1h-2zM34 4h4v1h-4z"/><path fill="#FFFFFF" d="M35 3h1v1h-1z"/><path fill="#4E8A3F" d="M36 6h1v1h-1zM36 7h1v1h-1zM36 8h1v1h-1zM36 9h1v1h-1zM36 10h1v1h-1zM36 11h1v1h-1z"/></symbol>
<symbol id="hexiangu-x-work" viewBox="0 0 56 24"><path fill="#F87AA5" d="M39 1h1v1h-1zM42 4h1v1h-1z"/><path fill="#4E8A3F" d="M43 6h1v1h-1z"/><path fill="#7D3D53" d="M40 7h1v1h-1z"/></symbol>
<symbol id="hexiangu-p-ask" viewBox="0 0 56 24"><path fill="#1A1A1A" d="M35 0h1v1h-1zM38 0h1v1h-1zM35 1h1v1h-1zM39 1h1v1h-1zM35 2h1v1h-1zM39 2h1v1h-1zM35 3h5v1h-5zM36 10h3v1h-3z"/><path fill="#7D3D53" d="M36 0h1v1h-1z"/><path fill="#F87AA5" d="M37 0h1v1h-1zM36 1h1v1h-1zM38 1h1v1h-1zM36 2h3v1h-3z"/><path fill="#FFFFFF" d="M37 1h1v1h-1z"/><path fill="#4E8A3F" d="M37 4h1v1h-1zM37 5h1v1h-1zM37 6h1v1h-1zM37 7h1v1h-1zM37 8h1v1h-1zM37 9h1v1h-1z"/></symbol>
<symbol id="hexiangu-x-ask" viewBox="0 0 56 24"><path fill="#C9A227" d="M9 4h3v1h-3z"/><path fill="#8A6A3F" d="M10 5h1v1h-1zM10 6h1v1h-1zM10 7h1v1h-1zM10 8h1v1h-1zM10 9h1v1h-1zM10 10h1v1h-1zM10 11h1v1h-1zM10 12h1v1h-1zM10 13h1v1h-1zM10 14h1v1h-1zM10 15h1v1h-1zM10 16h1v1h-1zM10 17h1v1h-1zM10 18h1v1h-1zM10 19h1v1h-1zM10 20h1v1h-1zM10 21h1v1h-1z"/></symbol>
<symbol id="hexiangu-p-done" viewBox="0 0 56 24"><path fill="#1A1A1A" d="M33 2h3v1h-3zM32 3h1v1h-1zM35 3h1v1h-1zM32 4h1v1h-1zM36 4h1v1h-1zM32 5h1v1h-1zM36 5h1v1h-1zM32 6h5v1h-5zM33 13h3v1h-3z"/><path fill="#7D3D53" d="M33 3h1v1h-1z"/><path fill="#F87AA5" d="M34 3h1v1h-1zM33 4h1v1h-1zM35 4h1v1h-1zM33 5h3v1h-3z"/><path fill="#FFFFFF" d="M34 4h1v1h-1z"/><path fill="#4E8A3F" d="M34 7h1v1h-1zM34 8h1v1h-1zM34 9h1v1h-1zM34 10h1v1h-1zM34 11h1v1h-1zM34 12h1v1h-1z"/></symbol>
<symbol id="hexiangu-x-done" viewBox="0 0 56 24"><path fill="#C9A227" d="M37 3h1v1h-1z"/><path fill="#FFFFFF" d="M38 5h1v1h-1z"/></symbol>
<symbol id="hexiangu-f-ask" viewBox="0 0 56 24"><path fill="#B5453C" d="M11 8h4v1h-4zM11 9h5v1h-5zM11 11h5v1h-5z"/><path fill="#8E2F27" d="M11 10h4v1h-4zM11 12h4v1h-4z"/></symbol>
<symbol id="lancaihe-body" viewBox="0 0 56 24"><path fill="#1A1A1A" d="M26 4h1v1h-1zM29 4h1v1h-1zM26 5h1v1h-1zM29 5h1v1h-1zM24 6h1v1h-1zM27 6h2v1h-2zM32 6h1v1h-1zM24 7h1v1h-1zM32 7h1v1h-1zM24 8h1v1h-1zM32 8h1v1h-1zM24 9h1v1h-1zM32 9h1v1h-1zM24 10h1v1h-1zM32 10h1v1h-1zM24 11h1v1h-1zM32 11h1v1h-1zM24 12h1v1h-1zM32 12h1v1h-1zM24 13h1v1h-1zM32 13h1v1h-1zM24 14h1v1h-1zM32 14h1v1h-1zM26 15h1v1h-1zM29 15h1v1h-1zM23 16h1v1h-1zM32 16h1v1h-1zM23 17h1v1h-1zM32 17h1v1h-1zM23 18h1v1h-1zM32 18h1v1h-1zM23 19h1v1h-1zM32 19h1v1h-1zM23 20h1v1h-1zM32 20h1v1h-1zM23 21h1v1h-1zM32 21h1v1h-1zM23 22h1v1h-1zM32 22h1v1h-1zM23 23h1v1h-1zM32 23h1v1h-1z"/><path fill="#3A3330" d="M25 6h2v1h-2zM29 6h2v1h-2zM25 7h7v1h-7zM25 8h7v1h-7z"/><path fill="#C9A47C" d="M25 9h7v1h-7zM28 13h1v1h-1zM27 14h2v1h-2zM27 15h2v1h-2z"/><path fill="#E8C9A0" d="M25 10h7v1h-7zM25 11h1v1h-1zM28 11h1v1h-1zM31 11h1v1h-1zM25 12h1v1h-1zM28 12h1v1h-1zM31 12h1v1h-1zM25 13h3v1h-3zM29 13h3v1h-3zM25 14h2v1h-2zM29 14h3v1h-3z"/><path fill="#2A2A2A" d="M26 11h2v1h-2zM29 11h2v1h-2zM26 12h2v1h-2zM29 12h2v1h-2z"/><path fill="#556BD3" d="M24 16h1v1h-1zM31 16h1v1h-1zM24 17h1v1h-1zM31 17h1v1h-1zM24 18h1v1h-1zM31 18h1v1h-1zM24 19h1v1h-1zM31 19h1v1h-1zM24 21h1v1h-1zM31 21h1v1h-1zM24 22h1v1h-1zM31 22h1v1h-1z"/><path fill="#2B366A" d="M25 16h1v1h-1zM30 16h1v1h-1zM25 17h1v1h-1zM30 17h1v1h-1zM25 18h1v1h-1zM30 18h1v1h-1zM25 19h1v1h-1zM30 19h1v1h-1zM24 20h6v1h-6zM31 20h1v1h-1zM25 21h1v1h-1zM30 21h1v1h-1zM25 22h1v1h-1zM30 22h1v1h-1zM24 23h8v1h-8z"/><path fill="#3F4F9C" d="M26 16h4v1h-4zM26 17h4v1h-4zM26 18h4v1h-4zM26 19h4v1h-4zM26 21h4v1h-4zM26 22h4v1h-4z"/><path fill="#8A939C" d="M30 20h1v1h-1z"/></symbol>
<symbol id="lancaihe-p-rest" viewBox="0 0 56 24"><path fill="#1A1A1A" d="M34 14h2v1h-2zM33 15h1v1h-1zM35 15h1v1h-1zM33 16h4v1h-4zM33 17h1v1h-1zM36 17h1v1h-1zM33 18h1v1h-1zM36 18h1v1h-1zM33 19h1v1h-1zM36 19h1v1h-1zM33 20h1v1h-1zM36 20h1v1h-1zM33 21h1v1h-1zM36 21h1v1h-1zM33 22h1v1h-1zM36 22h1v1h-1zM33 23h1v1h-1zM36 23h1v1h-1z"/><path fill="#556BD3" d="M34 17h1v1h-1z"/><path fill="#2B366A" d="M35 17h1v1h-1z"/><path fill="#8A6A3F" d="M34 18h2v1h-2zM34 19h2v1h-2zM34 20h2v1h-2zM34 21h2v1h-2zM34 22h2v1h-2zM34 23h2v1h-2z"/></symbol>
<symbol id="lancaihe-x-rest" viewBox="0 0 56 24"></symbol>
<symbol id="lancaihe-p-work" viewBox="0 0 56 24"><path fill="#556BD3" d="M36 9h1v1h-1zM37 10h1v1h-1zM36 11h1v1h-1zM36 15h1v1h-1z"/><path fill="#2B366A" d="M38 9h1v1h-1zM37 11h1v1h-1zM37 15h1v1h-1z"/><path fill="#1A1A1A" d="M35 10h1v1h-1zM38 10h1v1h-1zM35 11h1v1h-1zM38 11h1v1h-1zM36 12h2v1h-2zM35 13h1v1h-1zM37 13h1v1h-1zM35 14h4v1h-4zM35 15h1v1h-1zM38 15h1v1h-1zM35 16h1v1h-1zM38 16h1v1h-1zM35 17h1v1h-1zM38 17h1v1h-1zM35 18h1v1h-1zM38 18h1v1h-1zM35 19h1v1h-1zM38 19h1v1h-1zM35 20h1v1h-1zM38 20h1v1h-1zM35 21h1v1h-1zM38 21h1v1h-1zM35 22h4v1h-4z"/><path fill="#FFFFFF" d="M36 10h1v1h-1z"/><path fill="#8A6A3F" d="M36 16h2v1h-2zM36 17h2v1h-2zM36 18h2v1h-2zM36 19h2v1h-2zM36 20h2v1h-2zM36 21h2v1h-2z"/></symbol>
<symbol id="lancaihe-x-work" viewBox="0 0 56 24"><path fill="#556BD3" d="M42 9h1v1h-1zM39 12h1v1h-1z"/><path fill="#4E8A3F" d="M43 12h1v1h-1z"/><path fill="#2B366A" d="M40 15h1v1h-1z"/></symbol>
<symbol id="lancaihe-p-ask" viewBox="0 0 56 24"><path fill="#1A1A1A" d="M37 10h2v1h-2zM36 11h1v1h-1zM38 11h1v1h-1zM36 12h4v1h-4zM36 13h1v1h-1zM39 13h1v1h-1zM36 14h1v1h-1zM39 14h1v1h-1zM36 15h1v1h-1zM39 15h1v1h-1zM36 16h1v1h-1zM39 16h1v1h-1zM36 17h1v1h-1zM39 17h1v1h-1zM36 18h1v1h-1zM39 18h1v1h-1zM36 19h1v1h-1zM39 19h1v1h-1zM36 20h4v1h-4z"/><path fill="#556BD3" d="M37 13h1v1h-1z"/><path fill="#2B366A" d="M38 13h1v1h-1z"/><path fill="#8A6A3F" d="M37 14h2v1h-2zM37 15h2v1h-2zM37 16h2v1h-2zM37 17h2v1h-2zM37 18h2v1h-2zM37 19h2v1h-2z"/></symbol>
<symbol id="lancaihe-x-ask" viewBox="0 0 56 24"><path fill="#C9A227" d="M9 4h3v1h-3z"/><path fill="#8A6A3F" d="M10 5h1v1h-1zM10 6h1v1h-1zM10 7h1v1h-1zM10 8h1v1h-1zM10 9h1v1h-1zM10 10h1v1h-1zM10 11h1v1h-1zM10 12h1v1h-1zM10 13h1v1h-1zM10 14h1v1h-1zM10 15h1v1h-1zM10 16h1v1h-1zM10 17h1v1h-1zM10 18h1v1h-1zM10 19h1v1h-1zM10 20h1v1h-1zM10 21h1v1h-1z"/></symbol>
<symbol id="lancaihe-p-done" viewBox="0 0 56 24"><path fill="#1A1A1A" d="M34 13h2v1h-2zM33 14h1v1h-1zM35 14h1v1h-1zM33 15h4v1h-4zM33 16h1v1h-1zM36 16h1v1h-1zM33 17h1v1h-1zM36 17h1v1h-1zM33 18h1v1h-1zM36 18h1v1h-1zM33 19h1v1h-1zM36 19h1v1h-1zM33 20h1v1h-1zM36 20h1v1h-1zM33 21h1v1h-1zM36 21h1v1h-1zM33 22h1v1h-1zM36 22h1v1h-1zM33 23h4v1h-4z"/><path fill="#556BD3" d="M34 16h1v1h-1z"/><path fill="#2B366A" d="M35 16h1v1h-1z"/><path fill="#8A6A3F" d="M34 17h2v1h-2zM34 18h2v1h-2zM34 19h2v1h-2zM34 20h2v1h-2zM34 21h2v1h-2zM34 22h2v1h-2z"/></symbol>
<symbol id="lancaihe-x-done" viewBox="0 0 56 24"><path fill="#C9A227" d="M37 14h1v1h-1z"/><path fill="#FFFFFF" d="M38 16h1v1h-1z"/></symbol>
<symbol id="lancaihe-f-ask" viewBox="0 0 56 24"><path fill="#B5453C" d="M11 8h4v1h-4zM11 9h5v1h-5zM11 11h5v1h-5z"/><path fill="#8E2F27" d="M11 10h4v1h-4zM11 12h4v1h-4z"/></symbol>
<symbol id="hanxiangzi-body" viewBox="0 0 56 24"><path fill="#1A1A1A" d="M27 1h2v1h-2zM26 2h1v1h-1zM29 2h1v1h-1zM25 3h6v1h-6zM24 4h1v1h-1zM31 4h1v1h-1zM24 5h1v1h-1zM31 5h1v1h-1zM24 6h9v1h-9zM24 7h1v1h-1zM32 7h1v1h-1zM24 8h1v1h-1zM32 8h1v1h-1zM24 9h1v1h-1zM32 9h1v1h-1zM24 10h1v1h-1zM32 10h1v1h-1zM24 11h1v1h-1zM32 11h1v1h-1zM24 12h1v1h-1zM32 12h1v1h-1zM26 13h1v1h-1zM29 13h1v1h-1zM22 14h1v1h-1zM33 14h1v1h-1zM22 15h1v1h-1zM33 15h1v1h-1zM22 16h1v1h-1zM33 16h1v1h-1zM22 17h1v1h-1zM33 17h1v1h-1zM22 18h1v1h-1zM33 18h1v1h-1zM22 19h1v1h-1zM33 19h1v1h-1zM22 20h1v1h-1zM33 20h1v1h-1zM22 21h1v1h-1zM33 21h1v1h-1zM22 22h1v1h-1zM33 22h1v1h-1z"/><path fill="#A564D3" d="M27 2h2v1h-2zM25 4h6v1h-6zM23 14h1v1h-1zM32 14h1v1h-1zM23 15h1v1h-1zM32 15h1v1h-1zM23 16h1v1h-1zM32 16h1v1h-1zM23 17h1v1h-1zM32 17h1v1h-1zM23 19h1v1h-1zM32 19h1v1h-1zM23 20h1v1h-1zM32 20h1v1h-1z"/><path fill="#53326A" d="M25 5h6v1h-6zM24 14h1v1h-1zM31 14h1v1h-1zM24 15h1v1h-1zM31 15h1v1h-1zM24 16h1v1h-1zM31 16h1v1h-1zM24 17h1v1h-1zM31 17h1v1h-1zM23 18h8v1h-8zM32 18h1v1h-1zM24 19h1v1h-1zM31 19h1v1h-1zM24 20h1v1h-1zM31 20h1v1h-1zM23 21h10v1h-10zM23 22h10v1h-10z"/><path fill="#C9A47C" d="M25 7h7v1h-7zM28 11h1v1h-1zM27 12h2v1h-2zM27 13h2v1h-2z"/><path fill="#E8C9A0" d="M25 8h7v1h-7zM25 9h1v1h-1zM28 9h1v1h-1zM31 9h1v1h-1zM25 10h1v1h-1zM28 10h1v1h-1zM31 10h1v1h-1zM25 11h3v1h-3zM29 11h3v1h-3zM25 12h2v1h-2zM29 12h3v1h-3z"/><path fill="#2A2A2A" d="M26 9h2v1h-2zM29 9h2v1h-2zM26 10h2v1h-2zM29 10h2v1h-2z"/><path fill="#7A4A9C" d="M25 14h6v1h-6zM25 15h6v1h-6zM25 16h6v1h-6zM25 17h6v1h-6zM25 19h6v1h-6zM25 20h6v1h-6z"/><path fill="#8A939C" d="M31 18h1v1h-1z"/></symbol>
<symbol id="hanxiangzi-p-rest" viewBox="0 0 56 24"><path fill="#1A1A1A" d="M35 14h1v1h-1zM34 15h2v1h-2zM34 16h1v1h-1zM33 17h1v1h-1zM32 18h1v1h-1zM31 19h1v1h-1zM30 20h1v1h-1zM29 21h1v1h-1zM28 22h1v1h-1zM27 23h1v1h-1z"/><path fill="#C9A227" d="M35 16h1v1h-1zM34 17h1v1h-1zM33 18h1v1h-1zM32 19h1v1h-1zM31 20h1v1h-1zM30 21h1v1h-1zM29 22h1v1h-1zM28 23h1v1h-1z"/></symbol>
<symbol id="hanxiangzi-x-rest" viewBox="0 0 56 24"></symbol>
<symbol id="hanxiangzi-p-work" viewBox="0 0 56 24"><path fill="#1A1A1A" d="M35 9h2v1h-2zM35 10h1v1h-1zM37 11h2v1h-2zM37 12h1v1h-1zM34 13h2v1h-2zM34 14h1v1h-1zM33 15h1v1h-1zM32 16h1v1h-1zM31 17h1v1h-1zM30 18h1v1h-1zM29 19h1v1h-1zM28 20h1v1h-1zM27 21h1v1h-1z"/><path fill="#C9A227" d="M35 14h1v1h-1zM34 15h1v1h-1zM33 16h1v1h-1zM32 17h1v1h-1zM31 18h1v1h-1zM30 19h1v1h-1zM29 20h1v1h-1zM28 21h1v1h-1z"/></symbol>
<symbol id="hanxiangzi-x-work" viewBox="0 0 56 24"><path fill="#FFFFFF" d="M35 10h1v1h-1zM35 11h1v1h-1zM34 12h2v1h-2zM38 16h1v1h-1zM38 17h1v1h-1zM37 18h2v1h-2z"/></symbol>
<symbol id="hanxiangzi-p-ask" viewBox="0 0 56 24"><path fill="#1A1A1A" d="M35 10h1v1h-1zM34 11h2v1h-2zM34 12h1v1h-1zM33 13h1v1h-1zM32 14h1v1h-1zM31 15h1v1h-1zM30 16h1v1h-1zM29 17h1v1h-1zM28 18h1v1h-1zM27 19h1v1h-1z"/><path fill="#C9A227" d="M35 12h1v1h-1zM34 13h1v1h-1zM33 14h1v1h-1zM32 15h1v1h-1zM31 16h1v1h-1zM30 17h1v1h-1zM29 18h1v1h-1zM28 19h1v1h-1z"/></symbol>
<symbol id="hanxiangzi-x-ask" viewBox="0 0 56 24"><path fill="#C9A227" d="M9 4h3v1h-3z"/><path fill="#8A6A3F" d="M10 5h1v1h-1zM10 6h1v1h-1zM10 7h1v1h-1zM10 8h1v1h-1zM10 9h1v1h-1zM10 10h1v1h-1zM10 11h1v1h-1zM10 12h1v1h-1zM10 13h1v1h-1zM10 14h1v1h-1zM10 15h1v1h-1zM10 16h1v1h-1zM10 17h1v1h-1zM10 18h1v1h-1zM10 19h1v1h-1zM10 20h1v1h-1zM10 21h1v1h-1z"/></symbol>
<symbol id="hanxiangzi-p-done" viewBox="0 0 56 24"><path fill="#1A1A1A" d="M35 13h1v1h-1zM34 14h2v1h-2zM34 15h1v1h-1zM33 16h1v1h-1zM32 17h1v1h-1zM31 18h1v1h-1zM30 19h1v1h-1zM29 20h1v1h-1zM28 21h1v1h-1zM27 22h1v1h-1z"/><path fill="#C9A227" d="M35 15h1v1h-1zM34 16h1v1h-1zM33 17h1v1h-1zM32 18h1v1h-1zM31 19h1v1h-1zM30 20h1v1h-1zM29 21h1v1h-1zM28 22h1v1h-1z"/></symbol>
<symbol id="hanxiangzi-x-done" viewBox="0 0 56 24"><path fill="#C9A227" d="M34 14h1v1h-1z"/><path fill="#FFFFFF" d="M35 16h1v1h-1z"/></symbol>
<symbol id="hanxiangzi-f-ask" viewBox="0 0 56 24"><path fill="#B5453C" d="M11 8h4v1h-4zM11 9h5v1h-5zM11 11h5v1h-5z"/><path fill="#8E2F27" d="M11 10h4v1h-4zM11 12h4v1h-4z"/></symbol>
<symbol id="caoguoju-body" viewBox="0 0 56 24"><path fill="#1A1A1A" d="M26 2h4v1h-4zM25 3h1v1h-1zM30 3h1v1h-1zM24 4h9v1h-9zM20 5h1v1h-1zM25 5h6v1h-6zM35 5h1v1h-1zM20 6h16v1h-16zM24 7h1v1h-1zM32 7h1v1h-1zM24 8h1v1h-1zM32 8h1v1h-1zM24 9h1v1h-1zM32 9h1v1h-1zM24 10h1v1h-1zM32 10h1v1h-1zM24 11h1v1h-1zM32 11h1v1h-1zM24 12h1v1h-1zM32 12h1v1h-1zM25 13h1v1h-1zM30 13h1v1h-1zM21 14h1v1h-1zM34 14h1v1h-1zM21 15h1v1h-1zM34 15h1v1h-1zM21 16h1v1h-1zM34 16h1v1h-1zM21 17h1v1h-1zM34 17h1v1h-1zM21 18h1v1h-1zM34 18h1v1h-1zM21 19h1v1h-1zM34 19h1v1h-1zM21 20h1v1h-1zM34 20h1v1h-1zM21 21h1v1h-1zM34 21h1v1h-1zM21 22h1v1h-1zM34 22h1v1h-1z"/><path fill="#785D14" d="M26 3h4v1h-4zM21 5h4v1h-4zM31 5h4v1h-4zM24 14h1v1h-1zM31 14h1v1h-1zM24 15h1v1h-1zM31 15h1v1h-1zM24 16h1v1h-1zM31 16h1v1h-1zM24 17h1v1h-1zM31 17h1v1h-1zM22 18h10v1h-10zM33 18h1v1h-1zM24 19h1v1h-1zM31 19h1v1h-1zM24 20h1v1h-1zM31 20h1v1h-1zM22 21h12v1h-12zM22 22h12v1h-12z"/><path fill="#3A3330" d="M25 7h7v1h-7zM26 12h1v1h-1zM29 12h1v1h-1zM26 13h4v1h-4z"/><path fill="#E8C9A0" d="M25 8h7v1h-7zM25 9h1v1h-1zM28 9h1v1h-1zM31 9h1v1h-1zM25 10h1v1h-1zM28 10h1v1h-1zM31 10h1v1h-1zM25 11h3v1h-3zM29 11h3v1h-3zM25 12h1v1h-1zM30 12h2v1h-2z"/><path fill="#2A2A2A" d="M26 9h2v1h-2zM29 9h2v1h-2zM26 10h2v1h-2zM29 10h2v1h-2z"/><path fill="#C9A47C" d="M28 11h1v1h-1zM27 12h2v1h-2z"/><path fill="#EEB928" d="M22 14h2v1h-2zM32 14h2v1h-2zM22 15h2v1h-2zM32 15h2v1h-2zM22 16h2v1h-2zM32 16h2v1h-2zM22 17h2v1h-2zM32 17h2v1h-2zM22 19h2v1h-2zM32 19h2v1h-2zM22 20h2v1h-2zM32 20h2v1h-2z"/><path fill="#B0891E" d="M25 14h6v1h-6zM25 15h6v1h-6zM25 16h6v1h-6zM25 17h6v1h-6zM25 19h6v1h-6zM25 20h6v1h-6z"/><path fill="#8A939C" d="M32 18h1v1h-1z"/></symbol>
<symbol id="caoguoju-p-rest" viewBox="0 0 56 24"><path fill="#1A1A1A" d="M26 16h4v1h-4zM26 17h1v1h-1zM29 17h1v1h-1zM26 18h1v1h-1zM29 18h1v1h-1zM26 19h1v1h-1zM29 19h1v1h-1zM26 20h1v1h-1zM29 20h1v1h-1zM26 21h1v1h-1zM29 21h1v1h-1zM26 22h1v1h-1zM29 22h1v1h-1zM26 23h4v1h-4z"/><path fill="#F2EBD8" d="M27 17h1v1h-1zM27 18h1v1h-1zM27 19h1v1h-1zM27 20h1v1h-1zM27 21h1v1h-1zM27 22h1v1h-1z"/><path fill="#EEB928" d="M28 17h1v1h-1zM28 18h1v1h-1zM28 19h1v1h-1zM28 20h1v1h-1zM28 21h1v1h-1zM28 22h1v1h-1z"/></symbol>
<symbol id="caoguoju-x-rest" viewBox="0 0 56 24"></symbol>
<symbol id="caoguoju-p-work" viewBox="0 0 56 24"><path fill="#1A1A1A" d="M26 14h3v1h-3zM30 14h3v1h-3zM26 15h1v1h-1zM28 15h1v1h-1zM30 15h1v1h-1zM32 15h1v1h-1zM26 16h1v1h-1zM28 16h1v1h-1zM30 16h1v1h-1zM32 16h1v1h-1zM26 17h1v1h-1zM28 17h1v1h-1zM30 17h1v1h-1zM32 17h1v1h-1zM26 18h1v1h-1zM28 18h1v1h-1zM30 18h1v1h-1zM32 18h1v1h-1zM26 19h1v1h-1zM28 19h1v1h-1zM30 19h1v1h-1zM32 19h1v1h-1zM26 20h1v1h-1zM28 20h1v1h-1zM30 20h1v1h-1zM32 20h1v1h-1zM26 21h3v1h-3zM30 21h3v1h-3z"/><path fill="#F2EBD8" d="M27 15h1v1h-1zM31 15h1v1h-1zM27 16h1v1h-1zM31 16h1v1h-1zM27 17h1v1h-1zM31 17h1v1h-1zM27 18h1v1h-1zM31 18h1v1h-1zM27 19h1v1h-1zM31 19h1v1h-1zM27 20h1v1h-1zM31 20h1v1h-1z"/></symbol>
<symbol id="caoguoju-x-work" viewBox="0 0 56 24"><path fill="#C2CAD2" d="M36 15h1v1h-1zM36 16h1v1h-1zM38 18h1v1h-1zM38 19h1v1h-1z"/></symbol>
<symbol id="caoguoju-p-ask" viewBox="0 0 56 24"><path fill="#1A1A1A" d="M26 12h4v1h-4zM26 13h1v1h-1zM29 13h1v1h-1zM26 14h1v1h-1zM29 14h1v1h-1zM26 15h1v1h-1zM29 15h1v1h-1zM26 16h1v1h-1zM29 16h1v1h-1zM26 17h1v1h-1zM29 17h1v1h-1zM26 18h1v1h-1zM29 18h1v1h-1zM26 19h4v1h-4z"/><path fill="#F2EBD8" d="M27 13h1v1h-1zM27 14h1v1h-1zM27 15h1v1h-1zM27 16h1v1h-1zM27 17h1v1h-1zM27 18h1v1h-1z"/><path fill="#EEB928" d="M28 13h1v1h-1zM28 14h1v1h-1zM28 15h1v1h-1zM28 16h1v1h-1zM28 17h1v1h-1zM28 18h1v1h-1z"/></symbol>
<symbol id="caoguoju-x-ask" viewBox="0 0 56 24"><path fill="#C9A227" d="M9 4h3v1h-3z"/><path fill="#8A6A3F" d="M10 5h1v1h-1zM10 6h1v1h-1zM10 7h1v1h-1zM10 8h1v1h-1zM10 9h1v1h-1zM10 10h1v1h-1zM10 11h1v1h-1zM10 12h1v1h-1zM10 13h1v1h-1zM10 14h1v1h-1zM10 15h1v1h-1zM10 16h1v1h-1zM10 17h1v1h-1zM10 18h1v1h-1zM10 19h1v1h-1zM10 20h1v1h-1zM10 21h1v1h-1z"/></symbol>
<symbol id="caoguoju-p-done" viewBox="0 0 56 24"><path fill="#1A1A1A" d="M26 15h4v1h-4zM26 16h1v1h-1zM29 16h1v1h-1zM26 17h1v1h-1zM29 17h1v1h-1zM26 18h1v1h-1zM29 18h1v1h-1zM26 19h1v1h-1zM29 19h1v1h-1zM26 20h1v1h-1zM29 20h1v1h-1zM26 21h1v1h-1zM29 21h1v1h-1zM26 22h4v1h-4z"/><path fill="#F2EBD8" d="M27 16h1v1h-1zM27 17h1v1h-1zM27 18h1v1h-1zM27 19h1v1h-1zM27 20h1v1h-1zM27 21h1v1h-1z"/><path fill="#EEB928" d="M28 16h1v1h-1zM28 17h1v1h-1zM28 18h1v1h-1zM28 19h1v1h-1zM28 20h1v1h-1zM28 21h1v1h-1z"/></symbol>
<symbol id="caoguoju-x-done" viewBox="0 0 56 24"><path fill="#C9A227" d="M36 16h1v1h-1z"/><path fill="#FFFFFF" d="M37 18h1v1h-1z"/></symbol>
<symbol id="caoguoju-f-ask" viewBox="0 0 56 24"><path fill="#B5453C" d="M11 8h4v1h-4zM11 9h5v1h-5zM11 11h5v1h-5z"/><path fill="#8E2F27" d="M11 10h4v1h-4zM11 12h4v1h-4z"/></symbol>
</svg>